<?xml version="1.0" encoding="UTF-8"?>
<svg id="Calque_1" data-name="Calque 1" xmlns="http://www.w3.org/2000/svg" viewBox="0 0 1920 1080">
  <defs>
    <style>
      .cls-1, .cls-2, .cls-3, .cls-4 {
        stroke-width: 0px;
      }

      .cls-1, .cls-5, .cls-4 {
        fill: #fff;
      }

      .cls-1, .cls-3 {
        fill-rule: evenodd;
      }

      .cls-6, .cls-7, .cls-8, .cls-5, .cls-9, .cls-10, .cls-11, .cls-12, .cls-13, .cls-14, .cls-15, .cls-16, .cls-17 {
        stroke: #1d1d1b;
        stroke-miterlimit: 10;
      }

      .cls-6, .cls-7, .cls-8, .cls-5, .cls-9, .cls-10, .cls-12, .cls-13, .cls-14, .cls-15, .cls-16, .cls-17 {
        stroke-width: 10px;
      }

      .cls-6, .cls-7, .cls-8, .cls-9, .cls-10, .cls-11, .cls-12, .cls-13, .cls-14, .cls-15, .cls-16, .cls-17 {
        fill: none;
      }

      .cls-7 {
        stroke-dasharray: 0 0 0 0 0 0 19.01 11.41 19.01 11.41 19.01 11.41;
      }

      .cls-2 {
        fill: #000;
      }

      .cls-8 {
        stroke-dasharray: 0 0 0 0 0 0 20.33 12.2 20.33 12.2 20.33 12.2;
      }

      .cls-9 {
        stroke-dasharray: 0 0 0 0 0 0 15.63 9.38 15.63 9.38 15.63 9.38;
      }

      .cls-3 {
        fill: #1d1d1b;
      }

      .cls-10 {
        stroke-dasharray: 0 0 0 0 19.01 11.41 19.01 11.41;
      }

      .cls-12 {
        stroke-dasharray: 0 0 0 0 13.13 7.88 13.13 7.88;
      }

      .cls-13 {
        stroke-dasharray: 0 0 0 0 12.48 7.49 12.48 7.49;
      }

      .cls-14 {
        stroke-dasharray: 0 0 0 0 0 0 19.06 11.44 19.06 11.44 19.06 11.44;
      }

      .cls-15 {
        stroke-dasharray: 0 0 0 0 15.63 9.38 15.63 9.38;
      }

      .cls-16 {
        stroke-dasharray: 0 0 0 0 19.06 11.44 19.06 11.44;
      }

      .cls-17 {
        stroke-dasharray: 0 0 0 0 20.33 12.2 20.33 12.2;
      }
    </style>
  </defs>
  <path class="cls-4" d="M48.95,879c1.47-11.36,7-22.03,15.27-29.48,4.66-4.22,10.19-6.84,15.81-9.42,10.8-5.15,22.56-10.32,33.62-14.85,42.68-17.38,87.6-29.86,133.3-36.02,75.98-10.17,154.7-1.6,226.19,26.22,22.43,8.85,44.21,19.83,65.26,31.53,61.89,34.6,121.27,76.41,190.89,93.82,142.06,37.09,272.12,3.3,398.92-64.5-98.74,69.54-223.95,112.91-345.37,91.24-19.26-3.42-38.62-8.41-57.2-14.53-22.71-7.65-45.28-17.14-66.61-28.07-65.88-33.37-127.98-76.23-199.74-96.19-36.35-9.88-74.33-14.28-111.98-13.78-89.68,1.19-176.89,28.73-257.56,66.42-13.01,5.26-28.15,3.78-40.81-2.39h0Z"/>
  <path class="cls-11" d="M1910.01,104.78l2.62,2.13c0-1.88-1.88-4.26-5.25-4.26l2.62,2.13Z"/>
  <g id="Page-1">
    <g id="Dribbble-Light-Preview">
      <g id="icons">
        <polygon id="mouse_pointer-_6_" data-name="mouse_pointer-[#6]" class="cls-3" points="1636.36 106.91 1588.31 231.22 1558.68 200.6 1520.42 237.92 1501.63 218.51 1540.19 181.49 1510.55 150.87 1636.36 106.91"/>
      </g>
    </g>
  </g>
  <path class="cls-4" d="M113.38,187.19v275.86h101.25c2.74,0,5.03,1.84,5.03,4.12v58.05c0,1.83-2.29,4.12-5.03,4.12h-101.25l-.94,318.6-.07,22.75c-23.81,11.87-35.99,16.64-68.93,33.66V125.03c0-1.83,2.29-4.12,5.03-4.12h393.61v66.28H113.38Z"/>
  <path class="cls-4" d="M501.1,607.52c0,68.56-54.85,106.5-113.36,106.5h-154.8v-62.59c.46,0,76.2-3.22,76.2-3.22,98.24-4,110.97-20.04,114.82-31.16,7.98-23.07-4.06-51.79-36.22-53.87-3.19-.21-27.88,0-54.39-12.34-37.94-17.37-59.42-49.82-59.42-92.33,0-68.57,55.31-110.16,113.82-110.16,62.62,0,111.07,42.05,111.99,104.22.46,1.37-1.82,3.65-5.03,3.65h-57.13c-2.74,0-5.03-2.29-5.03-3.65-.91-26.06-21.02-38.39-44.79-38.39-25.14,0-45.71,15.08-45.71,44.34,0,26.51,22.44,38.71,45.71,40.22,12.62.82,27.88,0,53.94,12.35,38.39,17.83,59.42,53.48,59.42,96.45Z"/>
  <path class="cls-4" d="M512.5,406.85v-54.4c0-1.82,2.29-4.11,5.03-4.11h209.8c3.21,0,5.03,2.29,5.03,4.11v54.4c0,2.29-1.82,4.11-5.03,4.11h-209.8c-2.74,0-5.03-1.82-5.03-4.11ZM657.4,480.9v229.01c0,1.82-2.29,4.11-5.49,4.11h-58.96c-3.21,0-5.03-2.29-5.03-4.11v-229.01h69.48Z"/>
  <path class="cls-4" d="M917,714.02h-168.66c-2.74,0-5.03-2.29-5.03-4.11v-357.46c0-1.82,2.29-4.11,5.03-4.11h168.66v66.28h-103.76v82.73h34.21c2.74,0,5.03,1.83,5.03,4.11v58.05c0,1.83-2.29,4.12-5.03,4.12h-34.21v82.28h103.76v68.1Z"/>
  <path class="cls-5" d="M1198.77,531.19c58.05,19.65,55.77,76.33,55.77,76.33,0,101.92-104.22,106.5-128.9,106.5h-54.4v-66.74h54.4c22.85,0,58.96-6.4,58.96-41.59,0-42.97-58.96-40.23-58.96-40.23h-124.33v-213.01c0-1.82,2.29-4.11,5.03-4.11h119.3s123.87-2.74,123.87,104.68c0,42.5-22.86,66.74-50.74,78.17ZM1125.65,413.7h-54.85v83.65h54.85s53.93,0,53.93-40.23c0-43.88-53.93-43.43-53.93-43.43Z"/>
  <path class="cls-5" d="M1550.26,714.02h-63.08c-1.37,0-3.65-.91-4.11-2.74l-72.22-203.87-71.3,203.87c-.46,1.83-2.74,2.74-4.58,2.74h-62.62c-4.12,0-5.94-2.74-4.58-5.49l138.49-357.45c1.38-3.65,7.77-3.65,9.15,0l138.95,357.45c1.38,2.74-.91,5.49-4.11,5.49Z"/>
  <g>
    <path class="cls-4" d="M1876.56,123.07v586.84c0,1.81-1.81,4.09-5.05,4.09h-60.27c-.95,0-3.71-.48-4.09-1.33l-168.25-240.91v154.45h-69.89v-273.76c0-1.81,2.29-4.09,4.57-4.09h60.75c.95,0,3.62.48,4.09,1.33l168.73,240.91V188.52c0-1.18-.95-2.13-2.13-2.13h-144.41v-67.42h210.91c3.24,0,5.05,2.29,5.05,4.09Z"/>
    <g>
      <polyline class="cls-6" points="1644.62 479.96 1638.89 471.76 1638.89 481.76"/>
      <line class="cls-15" x1="1638.89" y1="491.14" x2="1638.89" y2="536.48"/>
      <line class="cls-9" x1="1638.89" y1="541.17" x2="1638.89" y2="611.52"/>
      <polyline class="cls-6" points="1638.89 616.21 1638.89 626.21 1628.89 626.21"/>
      <line class="cls-12" x1="1621.01" y1="626.21" x2="1582.94" y2="626.21"/>
      <polyline class="cls-6" points="1579 626.21 1569 626.21 1569 616.21"/>
      <line class="cls-10" x1="1569" y1="604.8" x2="1569" y2="549.68"/>
      <path class="cls-7" d="M1569,543.98v-191.52c0-1.81,2.29-4.09,4.57-4.09h60.75c.95,0,3.62.48,4.09,1.33l159.72,228.05"/>
      <polyline class="cls-6" points="1801.41 582.41 1807.14 590.6 1807.14 580.6"/>
      <line class="cls-16" x1="1807.14" y1="569.16" x2="1807.14" y2="513.89"/>
      <path class="cls-14" d="M1807.14,508.17V188.52c0-1.18-.95-2.13-2.13-2.13h-128.69"/>
      <polyline class="cls-6" points="1670.6 186.39 1660.6 186.39 1660.6 176.39"/>
      <line class="cls-13" x1="1660.6" y1="168.9" x2="1660.6" y2="132.72"/>
      <polyline class="cls-6" points="1660.6 128.97 1660.6 118.97 1670.6 118.97"/>
      <line class="cls-17" x1="1682.8" y1="118.97" x2="1741.75" y2="118.97"/>
      <path class="cls-8" d="M1747.85,118.97h123.66c3.24,0,5.05,2.29,5.05,4.09v586.84c0,1.81-1.81,4.09-5.05,4.09h-60.27c-.95,0-3.71-.48-4.09-1.33l-159.04-227.71"/>
    </g>
  </g>
  <g id="brush">
    <path class="cls-1" d="M1324.97,800.82c-4.04-7.21-13.19-9.86-20.45-5.92l-77.14,46.56,12.47,22.62,79.28-43.07c7.26-3.95,9.88-12.99,5.84-20.2h0ZM1216.47,842.74l-19.76,10.71c-10.2-3.2-25.47-3.68-37.42,14.65-7.77,9.28-19.96,5.17-19.96,5.17,17.42,35.86,52.3,28.48,61.22,23.49,7.84-4.39,10.89-11.65,11.98-17.85l18.38-9.96-14.45-26.2h0Z"/>
    <g>
      <path class="cls-2" d="M1323.22,801.8c-2.93-5.51-10.11-8.25-15.96-5.97-1.62.55-4.28,2.41-5.86,3.35,0,0-24.11,15.04-24.11,15.04-11.99,7.51-36.14,22.69-48.11,30.24,0,0,1.26-4.68,1.26-4.68,4.35,7.43,8.66,14.88,13.08,22.28,0,0-5.67-1.66-5.67-1.66,16.92-7.87,34.39-16.67,50.96-25.22,7.4-3.89,17.84-9.4,25.05-13.4,1.64-.96,4.41-2.3,5.92-3.42,5.07-3.69,6.65-11.17,3.45-16.57h0ZM1326.71,799.84c4.1,7.07,2.02,16.86-4.69,21.56-1.72,1.28-4.53,2.54-6.41,3.61-4.16,2.26-8.34,4.49-12.48,6.78-20.4,11.36-41.5,23.59-61.29,35.96,0,0-3.64,2.32-3.64,2.32,0,0-2.02-3.98-2.02-3.98-4.42-8.68-8.96-17.34-13.44-25.99,0,0,2.83-1.64,2.83-1.64,12.3-7.08,36.97-21.39,49.23-28.51,1.93-1.1,26.33-15.4,27.62-16.13,7.95-5.29,19.73-2.45,24.29,6.02h0Z"/>
      <path class="cls-2" d="M1215.9,844.66c-6.38,3.87-12.52,7.49-18.96,10.94-6.74-2.11-14.2-2.49-20.7.43-6.39,2.71-11.13,8.07-14.84,13.85-5.38,6.81-14.99,8.77-23.09,6.4,0,0,3.86-4.38,3.86-4.38,1.74,3.37,3.75,6.57,6.1,9.45,11.51,14.32,32.37,19.28,49.44,13.04,7.01-2.8,11.53-9.41,13.04-16.79,0,0,.83-.45.83-.45l18.38-9.96-.8,2.72c-4.61-8.31-8.9-16.63-13.26-25.25h0ZM1217.03,840.82c5.61,9.41,11.29,19.18,16.6,28.92,0,0-1.77.96-1.77.96l-18.38,9.96s1.02-1.43,1.02-1.41c-1.44,15-12.09,23.03-26.37,25.07-23.91,3.76-41.76-8.36-51.65-29.67,0,0-3.25-6.86-3.25-6.86,0,0,7.1,2.48,7.1,2.48,6.36,2.05,13,.35,16.64-3.67,4.37-6.35,10.13-12.1,17.48-14.92,7.29-2.94,15.54-2.57,22.85-.13,0,0-1.55.15-1.55.15,6.99-3.81,14.24-7.45,21.27-10.87h0Z"/>
    </g>
  </g>
</svg>